<svg width="30" height="30" viewBox="0 0 30 30" fill="none" xmlns="http://www.w3.org/2000/svg">
<path d="M24.8625 11.9375C24.7586 11.7313 24.5997 11.558 24.4033 11.4366C24.207 11.3153 23.9808 11.2507 23.75 11.25H17.5V3.74999C17.5134 3.47585 17.4362 3.20491 17.2804 2.97899C17.1245 2.75308 16.8986 2.58475 16.6375 2.49999C16.3865 2.41742 16.1159 2.41649 15.8643 2.49734C15.6128 2.57819 15.3934 2.73666 15.2375 2.94999L5.23751 16.7C5.11222 16.8811 5.03698 17.092 5.01942 17.3115C5.00186 17.531 5.0426 17.7513 5.13751 17.95C5.22491 18.1772 5.37675 18.3739 5.57437 18.516C5.772 18.6581 6.00682 18.7394 6.25001 18.75H12.5V26.25C12.5002 26.5136 12.5837 26.7704 12.7386 26.9837C12.8935 27.1969 13.1119 27.3558 13.3625 27.4375C13.4881 27.4764 13.6185 27.4975 13.75 27.5C13.9472 27.5005 14.1418 27.4543 14.3178 27.3653C14.4937 27.2762 14.6461 27.1467 14.7625 26.9875L24.7625 13.2375C24.8972 13.051 24.9778 12.8309 24.9954 12.6016C25.0131 12.3722 24.9671 12.1424 24.8625 11.9375ZM15 22.4V17.5C15 17.1685 14.8683 16.8505 14.6339 16.6161C14.3995 16.3817 14.0815 16.25 13.75 16.25H8.75001L15 7.59999V12.5C15 12.8315 15.1317 13.1495 15.3661 13.3839C15.6005 13.6183 15.9185 13.75 16.25 13.75H21.25L15 22.4Z" fill="white"/>
</svg>
